<svg xmlns="http://www.w3.org/2000/svg" fill="none" viewBox="0 0 101 100"><path fill="#EF8A33" d="M35.6582 48.964C36.617 49.7636 36.617 51.2364 35.6582 52.036L20.5309 64.6514C19.2284 65.7376 17.25 64.8114 17.25 63.1154L17.25 37.8846C17.25 36.1886 19.2284 35.2624 20.5309 36.3486L35.6582 48.964Z"/><path fill="#F1963D" d="M61.7543 48.9881C62.6752 49.7857 62.6752 51.2143 61.7543 52.0119L47.3093 64.5216C46.014 65.6433 44 64.7232 44 63.0097L44 37.9903C44 36.2768 46.014 35.3567 47.3093 36.4784L61.7543 48.9881Z"/><path fill="#FABD5D" d="M88.6582 48.964C89.617 49.7636 89.617 51.2364 88.6582 52.036L73.5309 64.6514C72.2284 65.7376 70.25 64.8114 70.25 63.1154L70.25 37.8846C70.25 36.1886 72.2284 35.2624 73.5309 36.3486L88.6582 48.964Z"/></svg>