<svg xmlns="http://www.w3.org/2000/svg" fill="none" viewBox="0 0 490 455"><path fill="#fff" d="M412.423 449.243C416.403 445.545 420.046 441.499 423.307 437.154C467.515 380.643 490.729 308.845 487.738 237.806C486.911 218.053 483.803 197.534 472.18 181.313C464.878 171.106 451.995 162.646 439.83 166.5C434.359 168.249 429.933 172.221 425.986 176.306C407.772 194.908 394.329 217.639 386.803 242.56C386.269 244.287 385.442 245.973 384.797 247.661"/><path fill="#000" d="M413.881 451.942C414.49 451.936 415.078 451.714 415.539 451.316C419.597 447.475 423.308 443.283 426.629 438.789C470.328 381.752 493.246 308.246 489.524 237.172C488.603 219.633 485.877 197.231 472.91 179.509C464.988 168.709 450.987 159.76 437.649 164.145C431.68 166.098 427.038 170.372 422.874 174.72C404.566 193.792 391.152 217.016 383.781 242.405C383.484 243.355 383.14 244.29 382.749 245.205C382.454 245.942 382.159 246.679 381.902 247.416C381.444 248.708 382.12 250.127 383.413 250.584C384.706 251.041 386.124 250.366 386.581 249.074C386.802 248.411 387.097 247.748 387.355 247.084C387.827 246.004 388.233 244.897 388.571 243.768C395.735 219.159 408.741 196.645 426.482 178.146C430.203 174.277 434.293 170.482 439.23 168.861C450.21 165.25 462.074 173.098 468.93 182.461C481.161 199.11 483.703 220.595 484.587 237.429C488.235 307.361 465.687 379.651 422.724 435.766C419.6 440.028 416.098 443.999 412.26 447.631C412.016 447.847 411.817 448.11 411.676 448.404C411.534 448.698 411.453 449.017 411.435 449.343C411.418 449.668 411.466 449.994 411.576 450.301C411.686 450.608 411.856 450.89 412.076 451.131C412.544 451.654 413.216 451.95 413.918 451.942H413.881Z"/><path fill="#fff" d="M399.806 260.274L345.975 246.641L-21.334 281.054L-79.5121 301.354L-122.584 361.485L-181.463 555.806L-176.857 568.996H-49.079L427.108 366.609L399.806 260.274Z"/><path fill="#fff" d="M-50.8091 301.356C-43.9931 245.204 -43.772 241.188 -27.633 186.915C-11.495 132.605 14.518 80.064 55.121 39.645C70.78 24.06 82.571 17.096 93.698 12.38C117.021 2.43201 138.87 2.76301 157.366 3.05801C164.182 3.16901 184.852 3.79501 206.149 9.06401C268.822 24.649 309.385 73.874 316.721 83.083C343.585 116.762 354.192 152.649 375.378 224.424C380.389 241.336 384 255.524 386.395 265.359"/><path fill="#000" d="M-50.809 303.861C-50.2023 303.865 -49.6152 303.646 -49.1599 303.245C-48.7045 302.844 -48.4127 302.289 -48.34 301.687L-47.787 297.187C-41.523 245.641 -40.8969 240.261 -25.2379 187.646C-7.18495 126.894 20.449 77.6691 56.889 41.4501C73.396 25.0501 85.26 18.7171 94.655 14.7001C117.499 4.97307 138.648 5.26807 157.329 5.56207C166.982 5.70907 186.105 6.66708 205.559 11.4941C264.401 26.1221 304.046 71.1841 314.801 84.6331C341.366 117.904 351.941 153.718 373.016 225.087C377.032 238.646 380.716 252.387 383.996 265.948C384.071 266.265 384.208 266.564 384.398 266.828C384.589 267.092 384.83 267.316 385.107 267.487C385.384 267.659 385.692 267.773 386.013 267.825C386.335 267.877 386.664 267.866 386.981 267.791C387.297 267.716 387.597 267.579 387.861 267.388C388.125 267.198 388.349 266.957 388.52 266.68C388.691 266.403 388.806 266.095 388.858 265.773C388.91 265.452 388.898 265.123 388.823 264.806C385.507 251.173 381.823 237.356 377.769 223.724C356.509 151.724 345.824 115.584 318.669 81.5391C307.689 67.7591 267.123 21.6661 206.733 6.67007C186.8 1.69607 167.233 0.738073 157.361 0.591073C139.161 0.333073 116.461 -0.0349245 92.661 10.1341C82.786 14.3341 70.407 20.9341 53.31 37.9521C16.281 74.7971 -11.758 124.685 -30.07 186.252C-45.84 239.272 -46.5029 244.688 -52.8029 296.603L-53.356 301.103C-53.44 301.759 -53.258 302.421 -52.849 302.941C-52.44 303.461 -51.839 303.794 -51.182 303.866H-50.887L-50.809 303.861Z"/><path fill="#F80" d="M188.168 257.731C196.532 255.889 205.19 255.483 213.812 255.226C247.267 254.084 280.723 254.33 314.178 255.963C333.227 256.884 352.643 258.321 370.143 264.875C387.643 271.429 403.233 283.965 407.36 300.103C408.797 305.667 408.76 311.709 405.997 316.868C401.87 324.568 392.549 329.068 383.411 332.122C354.93 341.702 323.648 342.222 293.104 342.622C262.449 343.027 231.499 343.396 201.504 337.869C181.387 334.148 145.794 323.169 141.115 302.424C136.583 282.307 169.265 261.894 188.093 257.731H188.168ZM125.604 81.943C139.862 81.7845 153.864 78.1417 166.392 71.332C176.414 65.989 183.378 59.689 187.173 52.504C200.583 57.6251 215.265 58.3986 229.139 54.715C240.856 51.509 250.067 45.246 255.039 37.029C261.229 26.929 260.16 13.669 252.607 6.18998C252.051 5.68676 251.324 5.41644 250.574 5.43498C249.825 5.45352 249.112 5.7595 248.582 6.28958C248.052 6.81966 247.746 7.53323 247.727 8.28256C247.709 9.03189 247.98 9.75959 248.483 10.315C254.194 15.952 254.857 26.158 250.067 34.006C245.83 40.933 237.834 46.275 227.591 49.113C214.948 52.4619 201.573 51.766 189.346 47.123C191.053 40.877 190.204 34.209 186.988 28.59C185.735 26.2649 184.004 24.2319 181.908 22.625C179.812 21.0182 177.399 19.874 174.829 19.268C169.929 18.163 163.629 19.747 161.565 24.795C160.574 27.543 160.747 30.577 162.044 33.195C164.181 38.169 168.418 41.706 171.403 43.954C174.657 46.3814 178.136 48.4911 181.793 50.254C178.514 56.223 172.434 61.565 163.665 66.245C150.143 73.43 135.665 76.856 121.809 76.083C106.924 75.272 92.809 69.414 83.048 59.945C82.4908 59.4081 81.7433 59.1144 80.9697 59.1283C80.1961 59.1422 79.4596 59.4625 78.922 60.019C78.385 60.5761 78.0911 61.3235 78.1048 62.0971C78.1185 62.8707 78.4386 63.6072 78.995 64.145C89.754 74.572 105.229 81.02 121.477 81.904C122.84 81.978 124.204 82.015 125.567 82.015L125.604 81.943ZM171.771 24.722C172.389 24.7267 173.006 24.7883 173.613 24.906C177.198 25.799 180.238 28.168 181.977 31.428C184.251 35.4665 184.96 40.2007 183.967 44.728C180.779 43.1599 177.744 41.2971 174.903 39.164C170.997 36.253 168.603 33.564 167.423 30.764C167.055 29.88 166.465 28.185 166.981 26.895C167.571 25.421 169.671 24.684 171.771 24.684V24.722Z"/><path fill="#fff" d="M398.958 338.275C406.327 374.111 410.629 410.509 411.817 447.075C413.291 491.4 410.012 536.645 393.763 578.096C377.514 619.547 347.007 657.055 305.335 674.962C279.654 686.016 251.209 689.184 223.244 691.579C151.764 697.769 78.995 699.795 8.98999 684.357C-60.979 668.919 -128.59 634.506 -171.92 578.796C-175.9 573.521 -178.828 567.529 -180.542 561.147"/><path fill="#000" d="M129.252 698.73C162.192 698.73 194.026 696.63 223.502 694.051C252.352 691.546 280.391 688.414 306.367 677.213C345.533 660.374 378.252 624.561 396.121 578.981C410.343 542.725 416.128 500.796 414.359 446.965C413.131 410.263 408.805 373.731 401.427 337.758C401.29 337.118 400.904 336.559 400.355 336.203C399.805 335.847 399.137 335.723 398.497 335.86C397.857 335.997 397.298 336.383 396.942 336.932C396.586 337.481 396.463 338.149 396.599 338.789C403.902 374.499 408.191 410.76 409.421 447.189C411.19 500.28 405.484 541.621 391.552 577.214C374.161 621.576 342.437 656.394 304.487 672.714C279.174 683.583 251.577 686.714 223.17 689.147C158.875 694.711 83.232 698.211 9.68896 681.999C-66.617 665.199 -130.359 628.021 -169.821 577.359C-173.598 572.33 -176.386 566.629 -178.037 560.559C-178.413 559.246 -179.782 558.488 -181.095 558.864C-182.408 559.24 -183.166 560.609 -182.79 561.922C-180.986 568.614 -177.909 574.896 -173.726 580.422C-133.565 632.005 -68.826 669.808 8.62097 686.868C49.04 695.785 90.012 698.806 129.363 698.806L129.252 698.73Z"/><path fill="#000" d="M281.865 252.462C311.01 252.462 334.701 230.65 334.701 203.862C334.701 177.074 311.01 155.262 281.865 155.262C252.72 155.262 229.029 177.074 229.029 203.862C229.029 230.65 252.72 252.462 281.865 252.462ZM281.865 159.539C308.651 159.539 330.427 179.439 330.427 203.864C330.427 228.289 308.652 248.189 281.865 248.189C255.078 248.189 233.303 228.289 233.303 203.864C233.303 179.439 255.079 159.539 281.865 159.539Z"/><path fill="#000" d="M159.281 256.625C188.426 256.625 212.117 234.813 212.117 208.025C212.117 181.237 188.426 159.425 159.281 159.425C130.136 159.425 106.445 181.237 106.445 208.025C106.445 234.813 130.136 256.625 159.281 256.625ZM159.281 163.702C186.067 163.702 207.843 183.602 207.843 208.027C207.843 232.452 186.068 252.352 159.281 252.352C132.494 252.352 110.719 232.452 110.719 208.027C110.719 183.602 132.495 163.702 159.281 163.702Z"/><path fill="#000" d="M209.87 213.186C210.085 213.207 210.301 213.168 210.496 213.075C224.866 208.506 230.356 212.633 230.396 212.707C230.837 213.049 231.392 213.209 231.947 213.154C232.502 213.099 233.015 212.834 233.38 212.412C233.732 211.988 233.905 211.443 233.864 210.894C233.823 210.344 233.57 209.831 233.159 209.464C232.459 208.874 225.859 203.753 209.21 209.059C208.678 209.234 208.236 209.608 207.974 210.103C207.713 210.598 207.654 211.175 207.81 211.712C207.943 212.144 208.212 212.521 208.578 212.786C208.943 213.052 209.384 213.192 209.836 213.186H209.87Z"/><path fill="#fff" d="M248.556 168.271L318.083 235.992Z"/><path fill="#000" d="M318.083 236.803C318.298 236.812 318.505 236.716 318.636 236.545C318.778 236.389 318.856 236.185 318.856 235.974C318.856 235.763 318.778 235.56 318.636 235.403L249.109 167.645C248.953 167.503 248.749 167.425 248.538 167.425C248.327 167.425 248.123 167.503 247.967 167.645C247.816 167.797 247.731 168.002 247.731 168.216C247.731 168.43 247.816 168.635 247.967 168.787L317.494 236.545C317.663 236.652 317.851 236.726 318.047 236.766L318.083 236.803Z"/><path fill="#fff" d="M239.935 176.635L295.497 230.797Z"/><path fill="#000" d="M295.497 231.571C295.712 231.58 295.919 231.484 296.05 231.313C296.192 231.157 296.27 230.953 296.27 230.742C296.27 230.531 296.192 230.327 296.05 230.171L240.488 176.045C240.332 175.903 240.128 175.825 239.917 175.825C239.706 175.825 239.502 175.903 239.346 176.045C239.195 176.197 239.11 176.402 239.11 176.616C239.11 176.83 239.195 177.035 239.346 177.187L267.127 204.25L294.908 231.313C295.077 231.419 295.265 231.494 295.461 231.534L295.497 231.571Z"/><path fill="#fff" d="M143.548 163.039L177.261 195.905Z"/><path fill="#000" d="M177.261 196.715C177.476 196.724 177.683 196.628 177.814 196.457C177.956 196.301 178.034 196.097 178.034 195.886C178.034 195.675 177.956 195.471 177.814 195.315L144.101 162.449C143.945 162.307 143.741 162.229 143.53 162.229C143.319 162.229 143.115 162.307 142.959 162.449C142.808 162.601 142.724 162.806 142.724 163.02C142.724 163.234 142.808 163.439 142.959 163.591L176.675 196.457C176.845 196.564 177.032 196.638 177.228 196.678L177.261 196.715Z"/><path fill="#fff" d="M143.954 179.767L199.516 233.892Z"/><path fill="#000" d="M199.516 234.703C199.731 234.712 199.938 234.616 200.069 234.445C200.211 234.289 200.289 234.085 200.289 233.874C200.289 233.663 200.211 233.46 200.069 233.303L144.507 179.177C144.351 179.035 144.147 178.957 143.936 178.957C143.725 178.957 143.521 179.035 143.365 179.177C143.214 179.329 143.13 179.534 143.13 179.748C143.13 179.962 143.214 180.167 143.365 180.319L198.927 234.445C199.097 234.552 199.284 234.626 199.48 234.666L199.516 234.703Z"/></svg>