<svg xmlns="http://www.w3.org/2000/svg" width="175" height="27" fill="none" viewBox="0 0 175 27"><path fill="#121212" fill-rule="evenodd" d="M10 7.6019H13.2067C16.7767 7.6019 18.9882 9.44522 18.9882 13.4338C18.9882 17.3747 16.7767 19.361 13.333 19.361H10V7.6019ZM12.3379 17.47H13.0645C15.2602 17.47 16.6029 16.2941 16.6029 13.4338C16.6029 10.5576 15.2602 9.477 13.0645 9.477H12.3379V17.47Z" clip-rule="evenodd"/><path fill="#121212" d="M26.4578 18.0898C25.6995 18.9955 24.8465 19.5835 23.6302 19.5835C21.7346 19.5835 20.9132 18.2487 20.9132 16.024V10.4622H23.2353V15.7221C23.2353 17.1204 23.5828 17.5813 24.4674 17.5813C25.2098 17.5813 25.6521 17.2793 26.2682 16.4689V10.4622H28.5903V19.361H26.6947L26.5209 18.0898H26.4578Z"/><path fill="#121212" d="M37.6372 18.5029C36.8 19.2498 35.7574 19.5835 34.7464 19.5835C32.298 19.5835 30.434 17.8514 30.434 14.9275C30.434 11.956 32.5507 10.2398 34.9518 10.2398C36.0417 10.2398 36.8789 10.6688 37.5266 11.225L36.4208 12.7346C35.9785 12.3532 35.5678 12.1466 35.0623 12.1466C33.7197 12.1466 32.8035 13.2113 32.8035 14.9275C32.8035 16.2782 33.4669 17.6766 34.9992 17.6766C35.631 17.6766 36.2313 17.3906 36.721 16.9615L37.6372 18.5029Z"/><path fill="#121212" d="M39.238 6.68023H41.4969V14.3078H41.5601L44.6246 10.4622H47.152L44.0875 14.1012L47.4364 19.361H44.9247L42.7764 15.6744L41.4969 17.1363V19.361H39.238V6.68023Z"/><path fill="#121212" d="M50.8242 9.03206H48.5179V6.77558H50.8242V9.03206Z"/><path fill="#121212" d="M48.5021 19.361V10.4622H50.8084V19.361H48.5021Z"/><path fill="#121212" fill-rule="evenodd" d="M59.9445 18.5983C59.0599 19.218 57.9858 19.5835 56.8484 19.5835C54.3842 19.5835 52.457 17.8514 52.457 14.9275C52.457 12.0513 54.479 10.2398 56.5799 10.2398C59.0125 10.2398 60.2762 12.0354 60.2762 14.4985C60.2762 14.9275 60.2289 15.3566 60.1657 15.5631H54.7159C54.9055 17.0251 55.8375 17.7878 57.1644 17.7878C57.9068 17.7878 58.5228 17.5654 59.1547 17.1681L59.9445 18.5983ZM54.6843 14.0217H58.2859C58.2859 12.814 57.7488 12.0513 56.6115 12.0513C55.6795 12.0513 54.8581 12.7346 54.6843 14.0217Z" clip-rule="evenodd"/><path fill="#121212" fill-rule="evenodd" d="M77.2874 13.4974C77.2874 17.2476 75.2497 19.5676 72.3431 19.5676C69.4366 19.5676 67.3989 17.2476 67.3989 13.4974C67.3989 9.76303 69.4366 7.49066 72.3431 7.49066C75.2497 7.49066 77.2874 9.76303 77.2874 13.4974ZM68.8995 13.4974C68.8995 16.4054 70.258 18.2805 72.3431 18.2805C74.4283 18.2805 75.7867 16.4054 75.7867 13.4974C75.7867 10.5735 74.4283 8.77781 72.3431 8.77781C70.258 8.77781 68.8995 10.5735 68.8995 13.4974Z" clip-rule="evenodd"/><path fill="#121212" fill-rule="evenodd" d="M79.5808 10.7324H80.7656L80.892 11.7176H80.9393C81.7134 11.082 82.6611 10.5099 83.6721 10.5099C85.8836 10.5099 87.0841 12.2579 87.0841 14.9116C87.0841 17.8832 85.3149 19.5676 83.3562 19.5676C82.5822 19.5676 81.7608 19.2021 80.9867 18.5665L81.0183 20.0761V23H79.5808V10.7324ZM81.0183 17.4541C81.7923 18.1374 82.5506 18.3599 83.1192 18.3599C84.5567 18.3599 85.5835 17.0728 85.5835 14.9275C85.5835 13.0206 84.9516 11.7335 83.3246 11.7335C82.5822 11.7335 81.8555 12.1466 81.0183 12.9253V17.4541Z" clip-rule="evenodd"/><path fill="#121212" fill-rule="evenodd" d="M95.6003 18.6777C94.842 19.1703 93.9574 19.5676 92.7569 19.5676C90.4822 19.5676 88.6498 17.915 88.6498 15.0546C88.6498 12.2579 90.5296 10.5099 92.52 10.5099C94.6999 10.5099 95.932 12.099 95.932 14.562C95.932 14.8798 95.9162 15.1818 95.8688 15.3883H90.0873C90.1979 17.2476 91.2878 18.4076 92.9307 18.4076C93.7679 18.4076 94.4471 18.1533 95.079 17.7243L95.6003 18.6777ZM90.0715 14.3554H94.6683C94.6683 12.5598 93.8784 11.6699 92.5357 11.6699C91.3194 11.6699 90.2453 12.6551 90.0715 14.3554Z" clip-rule="evenodd"/><path fill="#121212" d="M97.9651 10.7324H99.1499L99.2762 11.9718H99.3236C100.145 11.1614 101.014 10.5099 102.199 10.5099C104.047 10.5099 104.821 11.654 104.821 13.8946V19.361H103.383V14.0853C103.383 12.4327 102.894 11.7812 101.756 11.7812C100.872 11.7812 100.271 12.2261 99.4026 13.1001V19.361H97.9651V10.7324Z"/><path fill="#121212" d="M118.279 16.2623C118.279 18.1057 116.762 19.5676 114.345 19.5676C112.703 19.5676 111.297 18.9161 110.286 17.8355L111.155 16.8344C111.992 17.7243 113.161 18.2805 114.361 18.2805C115.878 18.2805 116.794 17.5177 116.794 16.3736C116.794 15.206 115.99 14.8315 114.933 14.3386L114.867 14.3078L113.192 13.5768C112.134 13.116 110.839 12.3055 110.839 10.5893C110.839 8.7937 112.387 7.49066 114.488 7.49066C115.878 7.49066 117.078 8.04684 117.9 8.93672L117.126 9.87427C116.415 9.19097 115.562 8.77781 114.488 8.77781C113.161 8.77781 112.323 9.41344 112.323 10.494C112.323 11.6235 113.309 12.0406 114.2 12.418L114.235 12.4327L115.893 13.1478C117.236 13.7357 118.279 14.5302 118.279 16.2623Z"/><path fill="#121212" fill-rule="evenodd" d="M127.657 15.0546C127.657 17.915 125.777 19.5676 123.676 19.5676C121.575 19.5676 119.695 17.915 119.695 15.0546C119.695 12.1784 121.575 10.5099 123.676 10.5099C125.777 10.5099 127.657 12.1784 127.657 15.0546ZM121.196 15.0546C121.196 17.041 122.207 18.3599 123.676 18.3599C125.145 18.3599 126.172 17.041 126.172 15.0546C126.172 13.0683 125.145 11.7176 123.676 11.7176C122.207 11.7176 121.196 13.0683 121.196 15.0546Z" clip-rule="evenodd"/><path fill="#121212" d="M135.183 18.0103C134.377 18.9479 133.524 19.5676 132.339 19.5676C130.491 19.5676 129.733 18.4394 129.733 16.1988V10.7324H131.171V16.024C131.171 17.6289 131.644 18.3122 132.782 18.3122C133.666 18.3122 134.282 17.8832 135.104 16.8503V10.7324H136.541V19.361H135.341L135.23 18.0103H135.183Z"/><path fill="#121212" d="M139.36 10.7324H140.544L140.671 12.3055H140.718C141.334 11.2091 142.187 10.5099 143.151 10.5099C143.53 10.5099 143.799 10.5576 144.067 10.7006L143.799 11.9718C143.498 11.8606 143.325 11.8288 142.961 11.8288C142.266 11.8288 141.35 12.3373 140.797 13.8152V19.361H139.36V10.7324Z"/><path fill="#121212" d="M151.55 18.4711C150.792 19.1703 149.812 19.5676 148.785 19.5676C146.511 19.5676 144.757 17.915 144.757 15.0546C144.757 12.1784 146.7 10.5099 148.896 10.5099C150.033 10.5099 150.792 10.9707 151.408 11.5269L150.665 12.4962C150.16 12.0354 149.638 11.7176 148.943 11.7176C147.395 11.7176 146.258 13.0683 146.258 15.0546C146.258 17.041 147.332 18.3599 148.912 18.3599C149.717 18.3599 150.381 17.9944 150.934 17.5018L151.55 18.4711Z"/><path fill="#121212" fill-rule="evenodd" d="M159.28 18.6777C158.522 19.1703 157.637 19.5676 156.437 19.5676C154.162 19.5676 152.33 17.915 152.33 15.0546C152.33 12.2579 154.209 10.5099 156.2 10.5099C158.38 10.5099 159.612 12.099 159.612 14.562C159.612 14.8798 159.596 15.1818 159.549 15.3883H153.767C153.878 17.2476 154.968 18.4076 156.611 18.4076C157.448 18.4076 158.127 18.1533 158.759 17.7243L159.28 18.6777ZM153.751 14.3554H158.348C158.348 12.5598 157.558 11.6699 156.216 11.6699C154.999 11.6699 153.925 12.6551 153.751 14.3554Z" clip-rule="evenodd"/><path fill="#EF8A33" d="M166 5.58907C166 6.46669 165.293 7.17814 164.42 7.17814C163.548 7.17814 162.841 6.46669 162.841 5.58907C162.841 4.71145 163.548 4 164.42 4C165.293 4 166 4.71145 166 5.58907Z"/></svg>