<svg width="432" height="420" viewBox="0 0 432 420" fill="none" xmlns="http://www.w3.org/2000/svg">
<g clip-path="url(#clip0_1_120)">
<path d="M383.445 226.093C385.127 224.385 386.655 222.529 388.008 220.55C406.397 194.765 415.23 162.651 412.522 131.383C411.771 122.688 410 113.701 404.557 106.775C401.138 102.417 395.291 98.9378 390.002 100.875C387.624 101.753 385.749 103.591 384.089 105.47C376.421 114.029 370.937 124.316 368.106 135.453C367.904 136.224 367.572 136.984 367.321 137.741" fill="white"/>
<path d="M383.472 227.148C383.74 227.136 383.996 227.029 384.194 226.847C385.926 225.091 387.5 223.186 388.898 221.154C407.317 195.334 416.321 162.562 413.61 131.264C412.94 123.541 411.4 113.699 405.413 106.076C401.756 101.431 395.445 97.6936 389.627 99.8287C387.023 100.78 385.039 102.735 383.268 104.716C375.478 113.405 369.91 123.852 367.04 135.164C366.924 135.587 366.786 136.005 366.627 136.414C366.508 136.744 366.389 137.073 366.287 137.402C366.104 137.979 366.424 138.595 367.001 138.777C367.578 138.959 368.194 138.64 368.376 138.064C368.463 137.768 368.584 137.471 368.687 137.174C368.879 136.69 369.042 136.196 369.174 135.693C371.964 124.729 377.363 114.601 384.911 106.173C386.494 104.41 388.241 102.675 390.395 101.885C395.184 100.127 400.536 103.411 403.702 107.438C409.348 114.599 410.793 124.039 411.436 131.452C414.098 162.247 405.238 194.477 387.129 219.879C385.815 221.806 384.33 223.61 382.692 225.27C382.587 225.37 382.504 225.489 382.446 225.62C382.388 225.752 382.356 225.894 382.354 226.038C382.351 226.182 382.377 226.325 382.43 226.459C382.483 226.592 382.563 226.714 382.663 226.817C382.878 227.041 383.179 227.161 383.488 227.147L383.472 227.148Z" fill="black"/>
<path d="M382.477 140.047L358.716 134.029L196.583 149.219L170.903 158.18L151.891 184.722L125.901 270.496L127.934 276.319L184.336 276.319L394.528 186.984L382.477 140.047Z" fill="white"/>
<path d="M183.573 158.181C186.581 133.395 186.679 131.622 193.803 107.666C200.926 83.6929 212.408 60.501 230.331 42.6598C237.243 35.7804 242.447 32.7065 247.359 30.6248C257.654 26.2337 267.298 26.3798 275.462 26.51C278.471 26.559 287.595 26.8353 296.995 29.1611C324.66 36.0404 342.564 57.7687 345.803 61.8336C357.661 76.6997 362.343 92.5404 371.694 124.222C373.906 131.687 375.5 137.95 376.557 142.291" fill="white"/>
<path d="M183.572 159.286C183.84 159.288 184.099 159.191 184.3 159.014C184.501 158.837 184.63 158.593 184.662 158.327L184.906 156.34C187.671 133.588 187.948 131.213 194.86 107.988C202.828 81.172 215.026 59.4438 231.111 43.4565C238.397 36.2174 243.634 33.422 247.781 31.6489C257.865 27.3553 267.2 27.4855 275.446 27.6153C279.707 27.6802 288.148 28.103 296.735 30.2337C322.708 36.6906 340.208 56.5813 344.955 62.5177C356.681 77.2038 361.349 93.0123 370.651 124.515C372.424 130.5 374.05 136.565 375.498 142.551C375.531 142.691 375.592 142.823 375.676 142.94C375.76 143.056 375.866 143.155 375.988 143.231C376.111 143.306 376.247 143.357 376.389 143.38C376.531 143.403 376.676 143.398 376.815 143.365C376.955 143.331 377.087 143.271 377.204 143.187C377.321 143.103 377.419 142.997 377.495 142.874C377.57 142.752 377.621 142.616 377.644 142.474C377.667 142.332 377.662 142.187 377.629 142.047C376.165 136.03 374.539 129.931 372.749 123.913C363.365 92.1321 358.649 76.1797 346.662 61.152C341.816 55.0694 323.91 34.7237 297.253 28.1044C288.455 25.9088 279.818 25.4859 275.46 25.4211C267.426 25.3072 257.407 25.1447 246.901 29.6334C242.542 31.4873 237.078 34.4006 229.531 41.9124C213.186 58.176 200.81 80.1969 192.727 107.373C185.766 130.776 185.473 133.167 182.692 156.083L182.448 158.069C182.411 158.358 182.491 158.651 182.672 158.88C182.853 159.11 183.118 159.257 183.408 159.289L183.538 159.289L183.572 159.286Z" fill="black"/>
<path d="M289.059 138.924C292.751 138.111 296.572 137.932 300.378 137.819C315.146 137.314 329.913 137.423 344.68 138.144C353.089 138.55 361.659 139.185 369.384 142.078C377.108 144.971 383.99 150.504 385.812 157.628C386.446 160.084 386.43 162.751 385.21 165.028C383.388 168.427 379.274 170.413 375.24 171.761C362.669 175.99 348.861 176.219 335.378 176.396C321.847 176.574 308.185 176.737 294.945 174.298C286.066 172.655 270.355 167.809 268.289 158.652C266.289 149.772 280.715 140.762 289.026 138.924L289.059 138.924ZM261.443 61.3303C267.736 61.2604 273.917 59.6524 279.447 56.6466C283.871 54.2881 286.944 51.5073 288.62 48.3358C294.539 50.5963 301.02 50.9377 307.144 49.3117C312.316 47.8966 316.381 45.1321 318.576 41.505C321.308 37.0468 320.837 31.1938 317.503 27.8925C317.257 27.6704 316.936 27.551 316.605 27.5592C316.275 27.5674 315.96 27.7025 315.726 27.9365C315.492 28.1704 315.357 28.4854 315.349 28.8162C315.341 29.1469 315.46 29.4681 315.682 29.7133C318.203 32.2015 318.496 36.7065 316.381 40.1706C314.511 43.2283 310.982 45.5863 306.46 46.839C300.88 48.3172 294.976 48.01 289.579 45.9606C290.332 43.2035 289.958 40.2603 288.538 37.78C287.985 36.7537 287.221 35.8563 286.296 35.147C285.371 34.4377 284.306 33.9327 283.171 33.6652C281.008 33.1774 278.227 33.8766 277.316 36.1049C276.879 37.3178 276.955 38.6571 277.528 39.8127C278.471 42.0082 280.341 43.5695 281.659 44.5618C283.095 45.6332 284.631 46.5645 286.245 47.3426C284.797 49.9774 282.114 52.3354 278.243 54.4011C272.274 57.5726 265.884 59.0849 259.768 58.7437C253.197 58.3857 246.967 55.8 242.658 51.6203C242.412 51.3833 242.082 51.2537 241.741 51.2598C241.399 51.2659 241.074 51.4073 240.837 51.6529C240.6 51.8988 240.47 52.2288 240.476 52.5702C240.482 52.9117 240.624 53.2368 240.869 53.4742C245.618 58.0767 252.449 60.9229 259.621 61.3131C260.223 61.3458 260.825 61.3621 261.426 61.3621L261.443 61.3303ZM281.821 36.0726C282.094 36.0747 282.366 36.1019 282.634 36.1538C284.217 36.548 285.558 37.5937 286.326 39.0327C287.33 40.8153 287.643 42.905 287.204 44.9034C285.797 44.2112 284.458 43.389 283.204 42.4474C281.479 41.1625 280.423 39.9755 279.902 38.7396C279.739 38.3494 279.479 37.6012 279.707 37.0318C279.967 36.3812 280.894 36.0559 281.821 36.0559L281.821 36.0726Z" fill="#FF8800"/>
<path d="M382.102 174.477C385.355 190.295 387.254 206.361 387.778 222.502C388.429 242.067 386.982 262.039 379.809 280.335C372.637 298.632 359.171 315.188 340.777 323.093C329.441 327.972 316.885 329.37 304.541 330.428C272.989 333.16 240.869 334.054 209.968 327.24C179.083 320.425 149.239 305.235 130.113 280.644C128.357 278.316 127.064 275.671 126.308 272.854" fill="white"/>
<path d="M263.053 333.584C277.592 333.584 291.644 332.657 304.655 331.519C317.39 330.413 329.766 329.03 341.232 324.086C358.52 316.653 372.963 300.845 380.85 280.726C387.128 264.722 389.681 246.215 388.901 222.453C388.358 206.253 386.449 190.128 383.192 174.249C383.132 173.966 382.962 173.719 382.719 173.562C382.477 173.405 382.182 173.351 381.899 173.411C381.617 173.471 381.37 173.642 381.213 173.884C381.056 174.126 381.001 174.421 381.061 174.704C384.285 190.466 386.178 206.472 386.721 222.552C387.502 245.987 384.983 264.235 378.833 279.946C371.157 299.528 357.154 314.897 340.402 322.1C329.229 326.898 317.048 328.28 304.509 329.354C276.128 331.81 242.739 333.355 210.277 326.199C176.595 318.783 148.459 302.373 131.04 280.01C129.373 277.79 128.142 275.274 127.413 272.594C127.247 272.015 126.643 271.68 126.064 271.846C125.484 272.012 125.149 272.617 125.315 273.196C126.112 276.15 127.47 278.923 129.316 281.362C147.044 304.131 175.62 320.818 209.805 328.348C227.646 332.284 245.732 333.618 263.102 333.618L263.053 333.584Z" fill="black"/>
<path d="M330.417 136.599C343.282 136.599 353.739 126.971 353.739 115.146C353.739 103.322 343.282 93.6938 330.417 93.6938C317.552 93.6938 307.095 103.322 307.095 115.146C307.095 126.971 317.552 136.599 330.417 136.599ZM330.417 95.5817C342.241 95.5817 351.853 104.366 351.853 115.147C351.853 125.928 342.241 134.712 330.417 134.712C318.593 134.712 308.982 125.928 308.982 115.147C308.982 104.366 318.594 95.5817 330.417 95.5817Z" fill="black"/>
<path d="M276.308 138.436C289.173 138.436 299.63 128.808 299.63 116.984C299.63 105.159 289.173 95.5314 276.308 95.5314C263.443 95.5314 252.986 105.159 252.986 116.984C252.986 128.808 263.443 138.436 276.308 138.436ZM276.308 97.4193C288.131 97.4193 297.743 106.203 297.743 116.985C297.743 127.766 288.132 136.55 276.308 136.55C264.484 136.55 254.872 127.766 254.872 116.985C254.872 106.203 264.484 97.4193 276.308 97.4193Z" fill="black"/>
<path d="M298.638 119.262C298.733 119.271 298.828 119.254 298.914 119.213C305.257 117.196 307.681 119.018 307.698 119.05C307.893 119.201 308.138 119.272 308.383 119.248C308.628 119.224 308.854 119.106 309.016 118.92C309.171 118.733 309.247 118.493 309.229 118.25C309.211 118.007 309.1 117.781 308.918 117.619C308.609 117.359 305.696 115.098 298.347 117.44C298.112 117.517 297.917 117.683 297.801 117.901C297.686 118.119 297.66 118.374 297.729 118.611C297.788 118.802 297.906 118.968 298.068 119.085C298.229 119.203 298.424 119.265 298.623 119.262L298.638 119.262Z" fill="black"/>
<path d="M315.714 99.436L346.404 129.329Z" fill="white"/>
<path d="M346.404 129.687C346.499 129.691 346.59 129.648 346.648 129.573C346.71 129.504 346.745 129.414 346.745 129.321C346.745 129.227 346.71 129.138 346.648 129.069L315.958 99.1598C315.889 99.0972 315.799 99.0625 315.706 99.0625C315.613 99.0625 315.523 99.0972 315.454 99.1598C315.388 99.2267 315.35 99.3174 315.35 99.4118C315.35 99.5063 315.388 99.5969 315.454 99.6638L346.144 129.573C346.219 129.62 346.301 129.653 346.388 129.67L346.404 129.687Z" fill="black"/>
<path d="M311.909 103.128L336.434 127.035Z" fill="white"/>
<path d="M336.435 127.377C336.529 127.381 336.621 127.339 336.679 127.263C336.741 127.194 336.776 127.104 336.776 127.011C336.776 126.918 336.741 126.828 336.679 126.759L312.153 102.868C312.084 102.805 311.994 102.77 311.901 102.77C311.808 102.77 311.718 102.805 311.649 102.868C311.583 102.935 311.545 103.025 311.545 103.12C311.545 103.214 311.583 103.305 311.649 103.372L323.912 115.317L336.175 127.263C336.249 127.31 336.332 127.343 336.419 127.361L336.435 127.377Z" fill="black"/>
<path d="M269.363 97.1266L284.244 111.634Z" fill="white"/>
<path d="M284.244 111.991C284.339 111.995 284.43 111.953 284.488 111.878C284.551 111.809 284.585 111.719 284.585 111.625C284.585 111.532 284.551 111.442 284.488 111.373L269.607 96.8662C269.538 96.8036 269.448 96.7689 269.355 96.7689C269.262 96.7689 269.172 96.8036 269.103 96.8662C269.036 96.9332 268.999 97.0238 268.999 97.1182C268.999 97.2127 269.036 97.3033 269.103 97.3703L283.985 111.878C284.06 111.924 284.143 111.958 284.23 111.975L284.244 111.991Z" fill="black"/>
<path d="M269.542 104.51L294.068 128.402Z" fill="white"/>
<path d="M294.068 128.76C294.163 128.764 294.254 128.721 294.312 128.646C294.375 128.577 294.409 128.487 294.409 128.394C294.409 128.301 294.375 128.211 294.312 128.142L269.787 104.25C269.717 104.188 269.628 104.153 269.534 104.153C269.441 104.153 269.351 104.188 269.282 104.25C269.216 104.317 269.178 104.408 269.178 104.502C269.178 104.597 269.216 104.687 269.282 104.754L293.808 128.646C293.883 128.693 293.965 128.726 294.052 128.743L294.068 128.76Z" fill="black"/>
</g>
<g clip-path="url(#clip1_1_120)">
<path d="M274.445 322.094C276.127 320.377 277.655 318.514 279.008 316.525C297.397 290.627 306.23 258.37 303.522 226.964C302.771 218.231 301 209.204 295.557 202.247C292.138 197.87 286.291 194.376 281.002 196.322C278.624 197.204 276.749 199.05 275.089 200.937C267.421 209.534 261.937 219.866 259.106 231.052C258.904 231.827 258.572 232.59 258.321 233.35" fill="white"/>
<path d="M274.472 323.153C274.74 323.141 274.996 323.034 275.194 322.851C276.926 321.087 278.5 319.174 279.898 317.132C298.317 291.199 307.321 258.282 304.61 226.845C303.94 219.087 302.4 209.202 296.413 201.545C292.756 196.88 286.445 193.126 280.627 195.27C278.023 196.226 276.039 198.19 274.268 200.18C266.478 208.907 260.91 219.4 258.04 230.762C257.924 231.187 257.786 231.606 257.627 232.018C257.508 232.349 257.389 232.68 257.287 233.01C257.104 233.59 257.424 234.208 258.001 234.391C258.578 234.574 259.194 234.254 259.376 233.674C259.463 233.377 259.584 233.079 259.687 232.781C259.879 232.295 260.042 231.799 260.174 231.293C262.964 220.28 268.363 210.108 275.911 201.643C277.494 199.872 279.241 198.129 281.395 197.336C286.184 195.57 291.536 198.868 294.702 202.914C300.348 210.106 301.793 219.587 302.436 227.033C305.098 257.965 296.238 290.338 278.129 315.852C276.815 317.787 275.33 319.6 273.692 321.267C273.587 321.367 273.504 321.486 273.446 321.619C273.388 321.751 273.356 321.894 273.354 322.038C273.351 322.183 273.377 322.326 273.43 322.461C273.483 322.595 273.563 322.718 273.663 322.821C273.878 323.046 274.179 323.167 274.488 323.152L274.472 323.153Z" fill="black"/>
<path d="M273.477 235.666L249.716 229.622L87.5832 244.879L61.9031 253.88L42.8908 280.539L16.9013 366.693L18.9344 372.541L75.3364 372.541L285.528 282.811L273.477 235.666Z" fill="white"/>
<path d="M74.5726 253.88C77.5812 228.985 77.6788 227.204 84.8026 203.142C91.926 179.063 103.408 155.769 121.331 137.848C128.243 130.939 133.447 127.851 138.359 125.76C148.654 121.35 158.298 121.496 166.462 121.627C169.471 121.677 178.595 121.954 187.995 124.29C215.66 131.2 233.564 153.024 236.803 157.107C248.661 172.039 253.343 187.95 262.694 219.772C264.906 227.27 266.5 233.56 267.557 237.921" fill="white"/>
<path d="M74.5725 254.991C74.8403 254.993 75.0994 254.896 75.3004 254.718C75.5014 254.54 75.6302 254.294 75.6623 254.027L75.9064 252.032C78.6714 229.179 78.9477 226.793 85.8597 203.466C93.8284 176.531 106.026 154.707 122.111 138.649C129.397 131.378 134.634 128.57 138.781 126.789C148.865 122.476 158.2 122.607 166.446 122.737C170.707 122.803 179.148 123.227 187.735 125.367C213.708 131.853 231.208 151.832 235.955 157.794C247.681 172.545 252.349 188.424 261.651 220.066C263.424 226.077 265.05 232.17 266.498 238.182C266.531 238.323 266.592 238.455 266.676 238.572C266.76 238.689 266.866 238.789 266.988 238.865C267.111 238.94 267.247 238.991 267.389 239.014C267.531 239.037 267.676 239.032 267.815 238.999C267.955 238.966 268.087 238.905 268.204 238.821C268.321 238.736 268.419 238.629 268.495 238.507C268.57 238.384 268.621 238.247 268.644 238.105C268.667 237.962 268.662 237.816 268.629 237.676C267.165 231.631 265.539 225.506 263.749 219.462C254.365 187.54 249.649 171.517 237.662 156.423C232.816 150.313 214.91 129.877 188.253 123.229C179.455 121.023 170.818 120.599 166.46 120.534C158.426 120.419 148.407 120.256 137.901 124.765C133.542 126.627 128.078 129.553 120.531 137.098C104.186 153.433 91.8099 175.552 83.7268 202.848C76.7658 226.355 76.4732 228.756 73.6923 251.773L73.4482 253.768C73.4112 254.059 73.4915 254.353 73.672 254.583C73.8526 254.814 74.1178 254.961 74.4079 254.993L74.5381 254.993L74.5725 254.991Z" fill="black"/>
<path d="M180.059 234.539C183.751 233.722 187.572 233.542 191.378 233.428C206.146 232.922 220.913 233.031 235.68 233.755C244.089 234.163 252.659 234.801 260.384 237.706C268.108 240.612 274.99 246.17 276.812 253.325C277.446 255.792 277.43 258.471 276.21 260.758C274.388 264.172 270.274 266.167 266.24 267.521C253.669 271.768 239.861 271.999 226.378 272.176C212.847 272.356 199.185 272.519 185.945 270.069C177.066 268.419 161.355 263.552 159.289 254.354C157.289 245.435 171.715 236.385 180.026 234.539L180.059 234.539ZM152.443 156.602C158.736 156.531 164.917 154.916 170.447 151.897C174.871 149.528 177.944 146.735 179.62 143.55C185.539 145.82 192.02 146.163 198.144 144.53C203.316 143.109 207.381 140.332 209.576 136.689C212.308 132.211 211.837 126.332 208.503 123.016C208.257 122.793 207.936 122.673 207.605 122.681C207.275 122.689 206.96 122.825 206.726 123.06C206.492 123.295 206.357 123.611 206.349 123.944C206.341 124.276 206.46 124.599 206.682 124.845C209.203 127.344 209.496 131.869 207.381 135.348C205.511 138.42 201.982 140.788 197.46 142.046C191.88 143.531 185.976 143.222 180.579 141.164C181.332 138.395 180.958 135.438 179.538 132.947C178.985 131.916 178.221 131.015 177.296 130.303C176.371 129.59 175.306 129.083 174.171 128.814C172.008 128.324 169.227 129.027 168.316 131.265C167.879 132.483 167.955 133.828 168.528 134.989C169.471 137.194 171.341 138.762 172.659 139.759C174.095 140.835 175.631 141.771 177.245 142.552C175.797 145.199 173.114 147.567 169.243 149.642C163.274 152.827 156.884 154.346 150.768 154.004C144.197 153.644 137.967 151.047 133.658 146.849C133.412 146.611 133.082 146.48 132.741 146.487C132.399 146.493 132.074 146.635 131.837 146.882C131.6 147.128 131.47 147.46 131.476 147.803C131.482 148.146 131.624 148.472 131.869 148.711C136.618 153.334 143.449 156.192 150.621 156.584C151.223 156.617 151.825 156.634 152.426 156.634L152.443 156.602ZM172.821 131.232C173.094 131.234 173.366 131.262 173.634 131.314C175.217 131.71 176.558 132.76 177.326 134.205C178.33 135.996 178.643 138.095 178.204 140.102C176.797 139.407 175.458 138.581 174.204 137.635C172.479 136.345 171.423 135.152 170.902 133.911C170.739 133.519 170.479 132.768 170.707 132.196C170.967 131.542 171.894 131.215 172.821 131.215L172.821 131.232Z" fill="#FF8800"/>
<path d="M273.102 270.249C276.355 286.137 278.254 302.275 278.778 318.486C279.429 338.138 277.982 358.198 270.809 376.576C263.637 394.953 250.171 411.583 231.777 419.522C220.441 424.423 207.885 425.828 195.541 426.89C163.989 429.634 131.869 430.532 100.968 423.688C70.0834 416.843 40.2395 401.586 21.1133 376.886C19.3565 374.547 18.0641 371.891 17.3075 369.061" fill="white"/>
<path d="M154.053 430.06C168.592 430.06 182.644 429.129 195.655 427.986C208.39 426.875 220.766 425.486 232.232 420.52C249.52 413.055 263.963 397.177 271.85 376.968C278.128 360.894 280.681 342.304 279.901 318.438C279.358 302.166 277.449 285.969 274.192 270.02C274.132 269.736 273.962 269.488 273.719 269.33C273.477 269.172 273.182 269.118 272.899 269.178C272.617 269.239 272.37 269.41 272.213 269.653C272.056 269.897 272.001 270.193 272.061 270.477C275.285 286.309 277.178 302.386 277.721 318.537C278.502 342.075 275.983 360.404 269.833 376.185C262.157 395.853 248.154 411.29 231.402 418.526C220.229 423.345 208.048 424.733 195.509 425.811C167.128 428.278 133.739 429.83 101.277 422.642C67.5948 415.194 39.4587 398.711 22.0399 376.249C20.3727 374.019 19.1421 371.492 18.4133 368.801C18.2474 368.219 17.6431 367.882 17.0635 368.049C16.484 368.216 16.1494 368.823 16.3153 369.405C17.1116 372.372 18.4698 375.157 20.3162 377.607C38.0435 400.477 66.6197 417.237 100.805 424.801C118.646 428.754 136.732 430.094 154.102 430.094L154.053 430.06Z" fill="black"/>
<path d="M221.417 232.203C234.282 232.203 244.739 222.532 244.739 210.656C244.739 198.779 234.282 189.108 221.417 189.108C208.552 189.108 198.095 198.779 198.095 210.656C198.095 222.532 208.552 232.203 221.417 232.203ZM221.417 191.005C233.241 191.005 242.853 199.828 242.853 210.657C242.853 221.486 233.241 230.308 221.417 230.308C209.593 230.308 199.982 221.486 199.982 210.657C199.982 199.828 209.594 191.005 221.417 191.005Z" fill="black"/>
<path d="M167.308 234.049C180.173 234.049 190.63 224.378 190.63 212.501C190.63 200.625 180.173 190.954 167.308 190.954C154.443 190.954 143.986 200.625 143.986 212.501C143.986 224.378 154.443 234.049 167.308 234.049ZM167.308 192.85C179.131 192.85 188.743 201.673 188.743 212.502C188.743 223.331 179.132 232.154 167.308 232.154C155.484 232.154 145.872 223.331 145.872 212.502C145.872 201.673 155.484 192.85 167.308 192.85Z" fill="black"/>
<path d="M189.638 214.79C189.733 214.799 189.828 214.782 189.914 214.74C196.257 212.715 198.681 214.544 198.698 214.577C198.893 214.729 199.138 214.8 199.383 214.775C199.628 214.751 199.854 214.633 200.016 214.446C200.171 214.258 200.247 214.017 200.229 213.773C200.211 213.529 200.1 213.302 199.918 213.139C199.609 212.878 196.696 210.607 189.347 212.96C189.112 213.037 188.917 213.203 188.801 213.423C188.686 213.642 188.66 213.898 188.729 214.136C188.788 214.327 188.906 214.495 189.068 214.612C189.229 214.73 189.424 214.792 189.623 214.79L189.638 214.79Z" fill="black"/>
<path d="M206.714 194.876L237.404 224.901Z" fill="white"/>
<path d="M237.404 225.26C237.499 225.264 237.59 225.222 237.648 225.146C237.71 225.077 237.745 224.986 237.745 224.893C237.745 224.799 237.71 224.709 237.648 224.64L206.958 194.599C206.889 194.536 206.799 194.501 206.706 194.501C206.613 194.501 206.523 194.536 206.454 194.599C206.388 194.666 206.35 194.757 206.35 194.852C206.35 194.947 206.388 195.038 206.454 195.105L237.144 225.146C237.219 225.193 237.301 225.226 237.388 225.244L237.404 225.26Z" fill="black"/>
<path d="M202.909 198.584L227.434 222.598Z" fill="white"/>
<path d="M227.435 222.941C227.529 222.945 227.621 222.902 227.679 222.826C227.741 222.757 227.776 222.667 227.776 222.573C227.776 222.48 227.741 222.389 227.679 222.32L203.153 198.323C203.084 198.26 202.994 198.225 202.901 198.225C202.808 198.225 202.718 198.26 202.649 198.323C202.583 198.39 202.545 198.481 202.545 198.576C202.545 198.671 202.583 198.762 202.649 198.829L214.912 210.828L227.175 222.826C227.249 222.873 227.332 222.907 227.419 222.924L227.435 222.941Z" fill="black"/>
<path d="M160.363 192.556L175.244 207.128Z" fill="white"/>
<path d="M175.244 207.487C175.339 207.491 175.43 207.448 175.488 207.373C175.551 207.303 175.585 207.213 175.585 207.119C175.585 207.026 175.551 206.936 175.488 206.866L160.607 192.295C160.538 192.232 160.448 192.197 160.355 192.197C160.262 192.197 160.172 192.232 160.103 192.295C160.036 192.362 159.999 192.453 159.999 192.548C159.999 192.643 160.036 192.734 160.103 192.801L174.985 207.373C175.06 207.42 175.143 207.453 175.23 207.471L175.244 207.487Z" fill="black"/>
<path d="M160.542 199.973L185.068 223.97Z" fill="white"/>
<path d="M185.068 224.329C185.163 224.333 185.254 224.291 185.312 224.215C185.375 224.146 185.409 224.055 185.409 223.962C185.409 223.868 185.375 223.778 185.312 223.709L160.787 199.711C160.717 199.648 160.628 199.614 160.534 199.614C160.441 199.614 160.351 199.648 160.282 199.711C160.216 199.779 160.178 199.87 160.178 199.964C160.178 200.059 160.216 200.15 160.282 200.218L184.808 224.215C184.883 224.262 184.965 224.295 185.052 224.313L185.068 224.329Z" fill="black"/>
</g>
<g clip-path="url(#clip2_1_120)">
<path d="M177.445 420.093C179.127 418.385 180.655 416.529 182.008 414.55C200.397 388.765 209.23 356.651 206.522 325.383C205.771 316.688 204 307.701 198.557 300.775C195.138 296.417 189.291 292.938 184.002 294.875C181.624 295.753 179.749 297.591 178.089 299.47C170.421 308.029 164.937 318.316 162.106 329.453C161.904 330.224 161.572 330.984 161.321 331.741" fill="white"/>
<path d="M177.472 421.148C177.74 421.136 177.996 421.029 178.194 420.847C179.926 419.091 181.5 417.186 182.898 415.154C201.317 389.334 210.321 356.562 207.61 325.264C206.94 317.541 205.4 307.699 199.413 300.076C195.756 295.431 189.445 291.694 183.627 293.829C181.023 294.78 179.039 296.735 177.268 298.716C169.478 307.405 163.91 317.852 161.04 329.164C160.924 329.587 160.786 330.005 160.627 330.414C160.508 330.744 160.389 331.073 160.287 331.402C160.104 331.979 160.424 332.595 161.001 332.777C161.578 332.959 162.194 332.64 162.376 332.064C162.463 331.768 162.584 331.471 162.687 331.174C162.879 330.69 163.042 330.196 163.174 329.693C165.964 318.729 171.363 308.601 178.911 300.173C180.494 298.41 182.241 296.675 184.395 295.885C189.184 294.127 194.536 297.411 197.702 301.438C203.348 308.599 204.793 318.039 205.436 325.452C208.098 356.247 199.238 388.477 181.129 413.879C179.815 415.806 178.33 417.61 176.692 419.27C176.587 419.37 176.504 419.489 176.446 419.62C176.388 419.752 176.356 419.894 176.354 420.038C176.351 420.182 176.377 420.325 176.43 420.459C176.483 420.592 176.563 420.714 176.663 420.817C176.878 421.041 177.179 421.161 177.488 421.147L177.472 421.148Z" fill="black"/>
<path d="M176.477 334.047L152.716 328.029L-9.41676 343.219L-35.0969 352.18L-54.1092 378.722L-80.0987 464.496L-78.0656 470.319L-21.6636 470.319L188.528 380.984L176.477 334.047Z" fill="white"/>
<path d="M-22.4274 352.181C-19.4188 327.395 -19.3212 325.622 -12.1974 301.666C-5.07397 277.693 6.40833 254.501 24.3307 236.66C31.2427 229.78 36.4473 226.706 41.3589 224.625C51.6538 220.234 61.2981 220.38 69.4623 220.51C72.4709 220.559 81.5948 220.835 90.9954 223.161C118.66 230.04 136.564 251.769 139.803 255.834C151.661 270.7 156.343 286.54 165.694 318.222C167.906 325.687 169.5 331.95 170.557 336.291" fill="white"/>
<path d="M-22.4275 353.286C-22.1597 353.288 -21.9006 353.191 -21.6996 353.014C-21.4986 352.837 -21.3698 352.593 -21.3377 352.327L-21.0936 350.34C-18.3286 327.588 -18.0523 325.213 -11.1403 301.988C-3.17158 275.172 9.02623 253.444 25.1111 237.456C32.3974 230.217 37.6342 227.422 41.7812 225.649C51.8647 221.355 61.2 221.486 69.4459 221.615C73.7068 221.68 82.1478 222.103 90.7349 224.234C116.708 230.691 134.208 250.581 138.955 256.518C150.681 271.204 155.349 287.012 164.651 318.515C166.424 324.5 168.05 330.565 169.498 336.551C169.531 336.691 169.592 336.823 169.676 336.94C169.76 337.056 169.866 337.155 169.988 337.231C170.111 337.306 170.247 337.357 170.389 337.38C170.531 337.403 170.676 337.398 170.815 337.365C170.955 337.331 171.087 337.271 171.204 337.187C171.321 337.103 171.419 336.997 171.495 336.874C171.57 336.752 171.621 336.616 171.644 336.474C171.667 336.332 171.662 336.187 171.629 336.047C170.165 330.03 168.539 323.931 166.749 317.913C157.365 286.132 152.649 270.18 140.662 255.152C135.816 249.069 117.91 228.724 91.2531 222.104C82.4546 219.909 73.8176 219.486 69.46 219.421C61.4264 219.307 51.4065 219.145 40.9011 223.633C36.5422 225.487 31.078 228.401 23.5313 235.912C7.18645 252.176 -5.19014 274.197 -13.2732 301.373C-20.2342 324.776 -20.5268 327.167 -23.3077 350.083L-23.5518 352.069C-23.5888 352.358 -23.5085 352.651 -23.328 352.88C-23.1474 353.11 -22.8822 353.257 -22.5921 353.289L-22.4619 353.289L-22.4275 353.286Z" fill="black"/>
<path d="M83.0588 332.924C86.7507 332.111 90.5724 331.932 94.3782 331.819C109.146 331.314 123.913 331.423 138.68 332.144C147.089 332.55 155.659 333.185 163.384 336.078C171.108 338.971 177.99 344.504 179.812 351.628C180.446 354.084 180.43 356.751 179.21 359.028C177.388 362.427 173.274 364.413 169.24 365.761C156.669 369.99 142.861 370.219 129.378 370.396C115.847 370.574 102.185 370.737 88.9454 368.298C80.0656 366.655 64.3547 361.809 62.2893 352.652C60.2889 343.772 74.7149 334.762 83.0257 332.924L83.0588 332.924ZM55.4427 255.33C61.7362 255.26 67.9171 253.652 73.4468 250.647C77.8705 248.288 80.9445 245.507 82.6196 242.336C88.5391 244.596 95.0195 244.938 101.144 243.312C106.316 241.897 110.381 239.132 112.576 235.505C115.308 231.047 114.837 225.194 111.503 221.892C111.257 221.67 110.936 221.551 110.605 221.559C110.275 221.567 109.96 221.702 109.726 221.936C109.492 222.17 109.357 222.485 109.349 222.816C109.341 223.147 109.46 223.468 109.682 223.713C112.203 226.202 112.496 230.706 110.381 234.171C108.511 237.228 104.982 239.586 100.46 240.839C94.8796 242.317 88.976 242.01 83.5788 239.961C84.3323 237.204 83.9575 234.26 82.538 231.78C81.9851 230.754 81.2209 229.856 80.2957 229.147C79.3706 228.438 78.3056 227.933 77.1709 227.665C75.008 227.177 72.2272 227.877 71.3161 230.105C70.8787 231.318 70.955 232.657 71.5275 233.813C72.4708 236.008 74.3411 237.569 75.6587 238.562C77.0949 239.633 78.6307 240.564 80.2449 241.343C78.7975 243.977 76.1137 246.335 72.2431 248.401C66.2744 251.573 59.8837 253.085 53.7676 252.744C47.1972 252.386 40.9668 249.8 36.6582 245.62C36.4123 245.383 36.0823 245.254 35.7408 245.26C35.3994 245.266 35.0743 245.407 34.837 245.653C34.5999 245.899 34.4702 246.229 34.4763 246.57C34.4823 246.912 34.6236 247.237 34.8692 247.474C39.6183 252.077 46.449 254.923 53.621 255.313C54.2228 255.346 54.8246 255.362 55.4264 255.362L55.4427 255.33ZM75.8211 230.073C76.094 230.075 76.3662 230.102 76.6342 230.154C78.2166 230.548 79.5585 231.594 80.3261 233.033C81.3299 234.815 81.6426 236.905 81.2045 238.903C79.7972 238.211 78.4577 237.389 77.2036 236.447C75.4795 235.162 74.4227 233.976 73.9019 232.74C73.7394 232.349 73.479 231.601 73.7068 231.032C73.9672 230.381 74.8941 230.056 75.8211 230.056L75.8211 230.073Z" fill="#FF8800"/>
<path d="M176.102 368.477C179.355 384.295 181.254 400.361 181.778 416.502C182.429 436.067 180.982 456.039 173.809 474.335C166.637 492.632 153.171 509.188 134.777 517.093C123.441 521.972 110.885 523.37 98.5412 524.428C66.9894 527.16 34.8688 528.054 3.96812 521.24C-26.9166 514.425 -56.7605 499.235 -75.8867 474.644C-77.6435 472.316 -78.9359 469.671 -79.6925 466.854" fill="white"/>
<path d="M57.0526 527.584C71.5925 527.584 85.6442 526.657 98.6551 525.519C111.39 524.413 123.766 523.03 135.232 518.086C152.52 510.653 166.963 494.845 174.85 474.726C181.128 458.722 183.681 440.215 182.901 416.453C182.358 400.253 180.449 384.128 177.192 368.249C177.132 367.966 176.962 367.719 176.719 367.562C176.477 367.405 176.182 367.351 175.899 367.411C175.617 367.471 175.37 367.642 175.213 367.884C175.056 368.126 175.001 368.421 175.061 368.704C178.285 384.466 180.178 400.472 180.721 416.552C181.502 439.987 178.983 458.235 172.833 473.946C165.157 493.528 151.154 508.897 134.402 516.1C123.229 520.898 111.048 522.28 98.5086 523.354C70.1284 525.81 36.7391 527.355 4.27672 520.199C-29.4052 512.783 -57.5413 496.373 -74.9601 474.01C-76.6273 471.79 -77.8579 469.274 -78.5867 466.594C-78.7526 466.015 -79.3569 465.68 -79.9365 465.846C-80.516 466.012 -80.8506 466.617 -80.6847 467.196C-79.8884 470.15 -78.5302 472.923 -76.6838 475.362C-58.9565 498.131 -30.3803 514.818 3.8053 522.348C21.6465 526.284 39.7318 527.618 57.1016 527.618L57.0526 527.584Z" fill="black"/>
<path d="M124.417 330.599C137.282 330.599 147.739 320.971 147.739 309.146C147.739 297.322 137.282 287.694 124.417 287.694C111.552 287.694 101.095 297.322 101.095 309.146C101.095 320.971 111.552 330.599 124.417 330.599ZM124.417 289.582C136.241 289.582 145.853 298.366 145.853 309.147C145.853 319.928 136.241 328.712 124.417 328.712C112.593 328.712 102.982 319.928 102.982 309.147C102.982 298.366 112.594 289.582 124.417 289.582Z" fill="black"/>
<path d="M70.3077 332.436C83.1725 332.436 93.6299 322.808 93.6299 310.984C93.6299 299.159 83.1725 289.531 70.3077 289.531C57.443 289.531 46.9856 299.159 46.9856 310.984C46.9856 322.808 57.443 332.436 70.3077 332.436ZM70.3077 291.419C82.1313 291.419 91.7433 300.203 91.7433 310.985C91.7433 321.766 82.1317 330.55 70.3077 330.55C58.4838 330.55 48.8722 321.766 48.8722 310.985C48.8722 300.203 58.4842 291.419 70.3077 291.419Z" fill="black"/>
<path d="M92.6381 313.262C92.733 313.271 92.8285 313.254 92.9144 313.213C99.2574 311.196 101.681 313.018 101.698 313.05C101.893 313.201 102.138 313.272 102.383 313.248C102.628 313.224 102.854 313.106 103.016 312.92C103.171 312.733 103.247 312.493 103.229 312.25C103.211 312.007 103.1 311.781 102.918 311.619C102.609 311.359 99.6958 309.098 92.3468 311.44C92.1122 311.517 91.9166 311.683 91.8014 311.901C91.6861 312.119 91.6601 312.374 91.7288 312.611C91.7876 312.802 91.9064 312.968 92.0677 313.085C92.2289 313.203 92.4238 313.265 92.6231 313.262L92.6381 313.262Z" fill="black"/>
<path d="M109.714 293.436L140.404 323.329Z" fill="white"/>
<path d="M140.404 323.687C140.499 323.691 140.59 323.648 140.648 323.573C140.71 323.504 140.745 323.414 140.745 323.321C140.745 323.227 140.71 323.138 140.648 323.069L109.958 293.16C109.889 293.097 109.799 293.062 109.706 293.062C109.613 293.062 109.523 293.097 109.454 293.16C109.388 293.227 109.35 293.317 109.35 293.412C109.35 293.506 109.388 293.597 109.454 293.664L140.144 323.573C140.219 323.62 140.301 323.653 140.388 323.67L140.404 323.687Z" fill="black"/>
<path d="M105.909 297.128L130.434 321.035Z" fill="white"/>
<path d="M130.435 321.377C130.529 321.381 130.621 321.339 130.679 321.263C130.741 321.194 130.776 321.104 130.776 321.011C130.776 320.918 130.741 320.828 130.679 320.759L106.153 296.868C106.084 296.805 105.994 296.77 105.901 296.77C105.808 296.77 105.718 296.805 105.649 296.868C105.583 296.935 105.545 297.025 105.545 297.12C105.545 297.214 105.583 297.305 105.649 297.372L117.912 309.317L130.175 321.263C130.249 321.31 130.332 321.343 130.419 321.361L130.435 321.377Z" fill="black"/>
<path d="M63.363 291.127L78.2441 305.634Z" fill="white"/>
<path d="M78.2441 305.991C78.339 305.995 78.4304 305.953 78.4882 305.878C78.5508 305.809 78.5854 305.719 78.5854 305.625C78.5854 305.532 78.5508 305.442 78.4882 305.373L63.6071 290.866C63.538 290.804 63.4482 290.769 63.355 290.769C63.2618 290.769 63.172 290.804 63.103 290.866C63.0364 290.933 62.999 291.024 62.999 291.118C62.999 291.213 63.0364 291.303 63.103 291.37L77.9854 305.878C78.0602 305.924 78.1429 305.958 78.2295 305.975L78.2441 305.991Z" fill="black"/>
<path d="M63.5425 298.51L88.0679 322.402Z" fill="white"/>
<path d="M88.0678 322.76C88.1627 322.764 88.2541 322.721 88.3119 322.646C88.3745 322.577 88.4092 322.487 88.4092 322.394C88.4092 322.301 88.3745 322.211 88.3119 322.142L63.7865 298.25C63.7175 298.188 63.6277 298.153 63.5345 298.153C63.4413 298.153 63.3514 298.188 63.2824 298.25C63.2158 298.317 63.1785 298.408 63.1785 298.502C63.1785 298.597 63.2158 298.687 63.2824 298.754L87.8078 322.646C87.8827 322.693 87.9654 322.726 88.0519 322.743L88.0678 322.76Z" fill="black"/>
</g>
<defs>
<clipPath id="clip0_1_120">
<rect width="226" height="226" fill="white" transform="matrix(-1 -8.74228e-08 -8.74228e-08 1 432 0)"/>
</clipPath>
<clipPath id="clip1_1_120">
<rect width="226" height="227" fill="white" transform="matrix(-1 -8.74228e-08 -8.74228e-08 1 323 95)"/>
</clipPath>
<clipPath id="clip2_1_120">
<rect width="226" height="226" fill="white" transform="matrix(-1 -8.74228e-08 -8.74228e-08 1 226 194)"/>
</clipPath>
</defs>
</svg>
